<svg xmlns="http://www.w3.org/2000/svg" viewBox="0 0 28.84 28.83"><defs><style>.cls-1,.cls-2{fill:#fff;}.cls-2{fill-rule:evenodd;}</style></defs><title>FACEBOOK_2</title><g id="Layer_2" data-name="Layer 2"><g id="FOOTER"><path class="cls-1" d="M28.13,10A14.42,14.42,0,1,1,14.42,0,14.42,14.42,0,0,1,28.13,10ZM14.42,1.3a13.12,13.12,0,1,0,12.47,9.06A13.12,13.12,0,0,0,14.42,1.3Z"/><path class="cls-2" d="M16.38,10.27h1.33v-2l-.64-.06c-.4,0-.81,0-1.21,0a3,3,0,0,0-1.7.53,2.53,2.53,0,0,0-1,1.7,6.25,6.25,0,0,0-.07.87c0,.46,0,.91,0,1.37v.17h-2v2.27h1.94v5.71h2.36v-5.7h1.93c.1-.75.2-1.5.3-2.28H15.41s0-1.13,0-1.62C15.44,10.5,15.84,10.29,16.38,10.27Z"/></g></g></svg>