<svg xmlns="http://www.w3.org/2000/svg" viewBox="0 0 58.96 58.96"><defs><style>.cls-1,.cls-2{fill:#414042;}.cls-2{fill-rule:evenodd;}</style></defs><title>FACEBOOK_1</title><g id="Layer_2" data-name="Layer 2"><g id="BODY"><path class="cls-1" d="M57.52,20.37A29.48,29.48,0,1,1,29.48,0,29.5,29.5,0,0,1,57.52,20.37Zm-28-17.71A26.82,26.82,0,1,0,55,21.19,26.82,26.82,0,0,0,29.48,2.66Z"/><path class="cls-2" d="M33.49,21c.8,0,1.6,0,2.4,0h.33V16.84c-.43,0-.88-.11-1.32-.13-.82,0-1.64-.08-2.46-.06A6.09,6.09,0,0,0,29,17.73a5.18,5.18,0,0,0-2.09,3.47A11.76,11.76,0,0,0,26.73,23c0,.94,0,1.87,0,2.8v.35h-4v4.65h4V42.46h4.83V30.8h3.95c.2-1.55.4-3.08.61-4.67H35.2c-1.12,0-3.7,0-3.7,0s0-2.3,0-3.3C31.58,21.46,32.39,21,33.49,21Z"/></g></g></svg>