<svg id="Capa_1" data-name="Capa 1" xmlns="http://www.w3.org/2000/svg" viewBox="0 0 58.98 58.97"><defs><style>.cls-1,.cls-2{fill:#3b5998;}.cls-2{fill-rule:evenodd;}</style></defs><title>facebook_1</title><g id="Layer_2" data-name="Layer 2"><g id="BODY"><path class="cls-1" d="M57.52,20.37A29.49,29.49,0,1,1,29.48,0,29.48,29.48,0,0,1,57.52,20.37Zm-28-17.71A26.81,26.81,0,1,0,55,21.19,26.83,26.83,0,0,0,29.52,2.66Z" transform="translate(0.01)"/><path class="cls-2" d="M33.49,21h2.73V16.84c-.43,0-.88-.11-1.32-.13-.82,0-1.64-.08-2.46-.06A6,6,0,0,0,29,17.73a5.2,5.2,0,0,0-2.09,3.47,10.87,10.87,0,0,0-.18,1.8v3.15h-4V30.8h4V42.46h4.83V30.8h3.95c.2-1.55.4-3.08.61-4.67H31.5v-3.3A1.75,1.75,0,0,1,33.49,21Z" transform="translate(0.01)"/></g></g></svg>