<svg xmlns="http://www.w3.org/2000/svg" viewBox="0 0 28.83 28.83"><defs><style>.cls-1,.cls-2{fill:#fff;}.cls-2{fill-rule:evenodd;}</style></defs><title>INSTAGRAM_2</title><g id="Layer_2" data-name="Layer 2"><g id="FOOTER"><path class="cls-1" d="M28.13,10A14.42,14.42,0,1,1,14.42,0,14.42,14.42,0,0,1,28.13,10ZM14.42,1.3a13.12,13.12,0,1,0,12.47,9.06A13.12,13.12,0,0,0,14.42,1.3Z"/><path class="cls-2" d="M18.1,9.06H10.73a1.67,1.67,0,0,0-1.67,1.67V18.1a1.68,1.68,0,0,0,1.67,1.68H18.1a1.68,1.68,0,0,0,1.68-1.68V10.73A1.68,1.68,0,0,0,18.1,9.06Zm-1.39,1.47a.3.3,0,0,1,.3-.29h1.3a.3.3,0,0,1,.3.29v1.3a.31.31,0,0,1-.3.3H17a.31.31,0,0,1-.3-.3Zm-4.27,3.11a2.12,2.12,0,0,1,4,0,2,2,0,0,1,.15.78,2.13,2.13,0,0,1-4.25,0A2.21,2.21,0,0,1,12.44,13.64Zm6.2,4.46a.54.54,0,0,1-.54.54H10.73a.54.54,0,0,1-.54-.54V13.64h1.06a3.33,3.33,0,0,0-.09.78,3.26,3.26,0,0,0,6.52,0,3.33,3.33,0,0,0-.1-.78h1.06Z"/></g></g></svg>