<svg xmlns="http://www.w3.org/2000/svg" viewBox="0 0 58.96 58.96"><defs><style>.cls-1,.cls-2{fill:#414042;}.cls-2{fill-rule:evenodd;}</style></defs><title>INSTAGRAM_1</title><g id="Layer_2" data-name="Layer 2"><g id="BODY"><path class="cls-1" d="M57.52,20.37A29.48,29.48,0,1,1,29.48,0,29.49,29.49,0,0,1,57.52,20.37Zm-28-17.71A26.82,26.82,0,1,0,55,21.19,26.82,26.82,0,0,0,29.48,2.66Z"/><path class="cls-2" d="M37,18.52H22A3.43,3.43,0,0,0,18.52,22V37A3.43,3.43,0,0,0,22,40.44H37A3.42,3.42,0,0,0,40.44,37V22A3.42,3.42,0,0,0,37,18.52Zm-2.84,3a.61.61,0,0,1,.62-.61h2.64a.61.61,0,0,1,.61.61v2.65a.61.61,0,0,1-.61.61H34.79a.61.61,0,0,1-.62-.61ZM25.44,27.9a4.34,4.34,0,0,1,8.08,0,4.15,4.15,0,0,1,.3,1.58,4.34,4.34,0,1,1-8.38-1.58ZM38.12,37A1.11,1.11,0,0,1,37,38.12H22A1.11,1.11,0,0,1,20.84,37V27.9H23a6.27,6.27,0,0,0-.19,1.58,6.66,6.66,0,0,0,13.32,0A6.27,6.27,0,0,0,36,27.9h2.17Z"/></g></g></svg>