<svg id="Capa_1" data-name="Capa 1" xmlns="http://www.w3.org/2000/svg" xmlns:xlink="http://www.w3.org/1999/xlink" viewBox="0 0 58.98 58.97"><defs><style>.cls-1,.cls-2{fill:url(#Degradado_sin_nombre_26);}.cls-2{fill-rule:evenodd;}</style><radialGradient id="Degradado_sin_nombre_26" cx="11.95" cy="50.91" r="61.38" gradientTransform="matrix(0.67, -0.74, 0.6, 0.55, -26.68, 31.95)" gradientUnits="userSpaceOnUse"><stop offset="0" stop-color="#f9ed32"/><stop offset="0.71" stop-color="#ee2a7b"/><stop offset="0.73" stop-color="#e12a82"/><stop offset="0.79" stop-color="#be2a96"/><stop offset="0.86" stop-color="#852ab5"/><stop offset="0.94" stop-color="#372ae0"/><stop offset="1" stop-color="#002aff"/></radialGradient></defs><title>instagram_1</title><g id="Layer_2" data-name="Layer 2"><g id="BODY"><path class="cls-1" d="M57.52,20.37A29.49,29.49,0,1,1,29.48,0,29.48,29.48,0,0,1,57.52,20.37Zm-28-17.71A26.81,26.81,0,1,0,55,21.19,26.83,26.83,0,0,0,29.52,2.66Z" transform="translate(0.01)"/><path class="cls-2" d="M37,18.52H22a3.44,3.44,0,0,0-3.48,3.38V37a3.44,3.44,0,0,0,3.42,3.44H37A3.42,3.42,0,0,0,40.44,37V22a3.42,3.42,0,0,0-3.36-3.48Zm-2.84,3a.61.61,0,0,1,.61-.61h2.65a.61.61,0,0,1,.61.61h0v2.65a.61.61,0,0,1-.61.61H34.79a.61.61,0,0,1-.62-.6h0ZM25.44,27.9a4.34,4.34,0,0,1,8.08,0,4.27,4.27,0,0,1,.3,1.58,4.34,4.34,0,1,1-8.38-1.58ZM38.12,37A1.11,1.11,0,0,1,37,38.12H22a1.11,1.11,0,0,1-1.16-1.06V27.9H23a6.5,6.5,0,0,0-.19,1.58,6.66,6.66,0,1,0,13.32,0A6.45,6.45,0,0,0,36,27.9h2.17Z" transform="translate(0.01)"/></g></g></svg>