<svg xmlns="http://www.w3.org/2000/svg" viewBox="0 0 58.96 58.96"><defs><style>.cls-1,.cls-2{fill:#414042;}.cls-2{fill-rule:evenodd;}</style></defs><title>TWITTER_1</title><g id="Layer_2" data-name="Layer 2"><g id="BODY"><path class="cls-1" d="M57.52,20.37A29.48,29.48,0,1,1,29.48,0,29.5,29.5,0,0,1,57.52,20.37Zm-28-17.71A26.82,26.82,0,1,0,55,21.19,26.82,26.82,0,0,0,29.48,2.66Z"/><path class="cls-2" d="M25.11,35.87a5.72,5.72,0,0,1-5.31-4,5.78,5.78,0,0,0,2.45-.07l.08,0a5.72,5.72,0,0,1-3.71-2.63,5.54,5.54,0,0,1-.84-3,5.81,5.81,0,0,0,2.54.69A5.72,5.72,0,0,1,18,23.36a5.66,5.66,0,0,1,.61-4.14,16.35,16.35,0,0,0,11.79,6c0-.23-.07-.43-.09-.63a5.53,5.53,0,0,1,.84-3.74A5.47,5.47,0,0,1,35,18.25a5.55,5.55,0,0,1,5,1.59.3.3,0,0,0,.31.09,11.37,11.37,0,0,0,3.32-1.28l.08,0s0,0,0,0a5.87,5.87,0,0,1-2.45,3.11,11,11,0,0,0,3.18-.85s0,0,0,0c-.21.29-.43.58-.65.86a11.41,11.41,0,0,1-2.08,2,.17.17,0,0,0-.09.18,16.56,16.56,0,0,1-.11,2.54,17,17,0,0,1-1.47,5.09A16.61,16.61,0,0,1,37,36a15.26,15.26,0,0,1-7.86,4.38,17,17,0,0,1-3.18.38,16.12,16.12,0,0,1-9.14-2.46l-.14-.08a11.61,11.61,0,0,0,5.72-.79A11.26,11.26,0,0,0,25.11,35.87Z"/></g></g></svg>