<svg id="Capa_1" data-name="Capa 1" xmlns="http://www.w3.org/2000/svg" viewBox="0 0 58.98 58.97"><defs><style>.cls-1,.cls-2{fill:#00acee;}.cls-2{fill-rule:evenodd;}</style></defs><title>twitter_1</title><g id="Layer_2" data-name="Layer 2"><g id="BODY"><path class="cls-1" d="M57.52,20.37A29.49,29.49,0,1,1,29.48,0,29.48,29.48,0,0,1,57.52,20.37Zm-28-17.71A26.81,26.81,0,1,0,55,21.19,26.83,26.83,0,0,0,29.52,2.66Z" transform="translate(0.01)"/><path class="cls-2" d="M25.11,35.87a5.72,5.72,0,0,1-5.31-4,5.78,5.78,0,0,0,2.45-.07h.08a5.73,5.73,0,0,1-3.71-2.63,5.58,5.58,0,0,1-.84-3,5.78,5.78,0,0,0,2.54.69,5.86,5.86,0,0,1-1.71-7.64,16.36,16.36,0,0,0,11.79,6,5.61,5.61,0,0,0-.09-.63,5.54,5.54,0,0,1,.84-3.74A5.44,5.44,0,0,1,35,18.25a5.57,5.57,0,0,1,5,1.59.3.3,0,0,0,.31.09,11.27,11.27,0,0,0,3.32-1.28h.08a5.86,5.86,0,0,1-2.45,3.11,10.93,10.93,0,0,0,3.18-.85h0c-.21.29-.43.58-.65.86a11.59,11.59,0,0,1-2.08,2,.17.17,0,0,0-.09.18,16.56,16.56,0,0,1-.11,2.54A17.09,17.09,0,0,1,40,31.58,16.58,16.58,0,0,1,37,36a15.26,15.26,0,0,1-7.86,4.38,17.05,17.05,0,0,1-3.18.38,16.12,16.12,0,0,1-9.14-2.46l-.14-.08a11.65,11.65,0,0,0,5.72-.79A11.43,11.43,0,0,0,25.11,35.87Z" transform="translate(0.01)"/></g></g></svg>