<svg xmlns="http://www.w3.org/2000/svg" viewBox="0 0 28.84 28.83"><defs><style>.cls-1,.cls-2{fill:#fff;}.cls-2{fill-rule:evenodd;}</style></defs><title>TWITTER_2</title><g id="Layer_2" data-name="Layer 2"><g id="FOOTER"><path class="cls-1" d="M28.13,10A14.42,14.42,0,1,1,14.42,0,14.42,14.42,0,0,1,28.13,10ZM14.42,1.3a13.12,13.12,0,1,0,12.47,9.06A13.12,13.12,0,0,0,14.42,1.3Z"/><path class="cls-2" d="M12.28,17.54a2.8,2.8,0,0,1-2.6-1.94,2.7,2.7,0,0,0,1.2,0l0,0A2.79,2.79,0,0,1,9.1,14.27a2.76,2.76,0,0,1-.4-1.49,2.71,2.71,0,0,0,1.24.34,2.8,2.8,0,0,1-1.15-1.7,2.75,2.75,0,0,1,.3-2,8,8,0,0,0,5.76,2.92c0-.11,0-.21,0-.3a2.67,2.67,0,0,1,.41-1.83,2.7,2.7,0,0,1,1.89-1.27,2.76,2.76,0,0,1,2.45.78.14.14,0,0,0,.15.05,5.62,5.62,0,0,0,1.62-.63l0,0h0a2.87,2.87,0,0,1-1.2,1.52,5.31,5.31,0,0,0,1.56-.42v0l-.32.42a5.8,5.8,0,0,1-1,1s-.05.05,0,.09a7.36,7.36,0,0,1-.06,1.24,8,8,0,0,1-.72,2.49,7.91,7.91,0,0,1-1.51,2.2,7.43,7.43,0,0,1-3.84,2.14A8.11,8.11,0,0,1,12.7,20a8,8,0,0,1-4.48-1.2l-.06-.05A5.64,5.64,0,0,0,11,18.32,5.4,5.4,0,0,0,12.28,17.54Z"/></g></g></svg>