<svg xmlns="http://www.w3.org/2000/svg" viewBox="0 0 28.84 28.83"><defs><style>.cls-1,.cls-2{fill:#fff;}.cls-2{fill-rule:evenodd;}</style></defs><title>YOUTUBE_2</title><g id="Layer_2" data-name="Layer 2"><g id="FOOTER"><path class="cls-1" d="M28.13,10A14.42,14.42,0,1,1,14.42,0,14.42,14.42,0,0,1,28.13,10ZM14.42,1.3a13.12,13.12,0,1,0,12.47,9.06A13.12,13.12,0,0,0,14.42,1.3Z"/><path class="cls-2" d="M9.56,18.45a1.42,1.42,0,0,1-.94-.91c-.41-1.12-.52-5.79.26-6.71a1.53,1.53,0,0,1,1-.55,57.88,57.88,0,0,1,9.38.08,1.46,1.46,0,0,1,.92.88,14.61,14.61,0,0,1-.06,6.48,1.48,1.48,0,0,1-.66.67C18.69,18.8,10.6,18.79,9.56,18.45Zm3.35-2.19,3.8-2-3.8-2Z"/></g></g></svg>