<svg xmlns="http://www.w3.org/2000/svg" viewBox="0 0 58.96 58.96"><defs><style>.cls-1,.cls-2{fill:#414042;}.cls-2{fill-rule:evenodd;}</style></defs><title>YOUTUBE_1</title><g id="Layer_2" data-name="Layer 2"><g id="BODY"><path class="cls-1" d="M57.52,20.37A29.48,29.48,0,1,1,29.48,0,29.49,29.49,0,0,1,57.52,20.37Zm-28-17.71A26.82,26.82,0,1,0,55,21.19,26.82,26.82,0,0,0,29.48,2.66Z"/><path class="cls-2" d="M19.55,37.73a2.92,2.92,0,0,1-1.92-1.86c-.83-2.29-1.08-11.85.52-13.73A3.11,3.11,0,0,1,20.24,21c4.32-.46,17.65-.39,19.18.16A3,3,0,0,1,41.31,23c.91,2.37.94,11-.12,13.24a2.92,2.92,0,0,1-1.35,1.36C38.23,38.44,21.67,38.43,19.55,37.73Zm6.85-4.48,7.77-4-7.77-4Z"/></g></g></svg>