<svg xmlns="http://www.w3.org/2000/svg" viewBox="0 0 99.09 44.46"><defs><style>.cls-1{fill:#fca436;}</style></defs><title>ICO_VER</title><g id="Layer_2" data-name="Layer 2"><g id="BODY"><path class="cls-1" d="M49.59,10.26a12,12,0,0,0-12,12,1.71,1.71,0,0,0,3.42,0,8.57,8.57,0,0,1,8.55-8.55,1.71,1.71,0,0,0,0-3.42Z"/><path class="cls-1" d="M98.6,20.35A68.36,68.36,0,0,0,49.74,0h-.28A68.33,68.33,0,0,0,.89,20.35l-.39.4a1.71,1.71,0,0,0,2.42,2.41l.4-.4A65,65,0,0,1,35.63,5a22.24,22.24,0,1,0,27.8-.09,64.86,64.86,0,0,1,32.74,17.9,1.71,1.71,0,1,0,2.43-2.41ZM68.41,22.23A18.82,18.82,0,1,1,49.46,3.43h.18A18.84,18.84,0,0,1,68.41,22.23Z"/></g></g></svg>