<svg xmlns="http://www.w3.org/2000/svg" viewBox="0 0 132.86 64.47"><defs><style>.cls-1{fill:#06195e;}.cls-1,.cls-2{fill-rule:evenodd;}.cls-2{fill:#fca436;}.cls-3{fill:#ffa82d;}.cls-4{fill:#031a5d;}</style></defs><title>LOGO_NAV</title><g id="Layer_2" data-name="Layer 2"><g id="NAV"><polygon class="cls-1" points="49.72 16.17 56.33 9.39 49.17 0.53 31.78 18.98 49.25 41.13 60.35 29.89 49.72 16.17"/><polygon class="cls-2" points="52.46 16.46 67.49 0.8 74.53 8.63 64.7 18.45 75.98 32.13 62.84 46.86 55.01 38.1 63.24 30 52.46 16.46"/><polygon class="cls-1" points="68.28 19.08 85.68 0 103.47 21.77 85.81 40.49 68.28 19.08"/><path class="cls-3" d="M11.64,47a11.23,11.23,0,0,0-4.43-.81C3,46.23.36,48.33.36,51.14c0,2.4,2.12,4,5.25,5.07,2.51.88,3.58,1.8,3.58,3.31S7.79,62.2,5.28,62.2a10.48,10.48,0,0,1-4.56-1L0,63.41a11.93,11.93,0,0,0,5.09,1.06c4.73,0,7.35-2.22,7.35-5.18,0-2.44-1.63-4-5-5.24-2.67-1-3.85-1.71-3.85-3.22,0-1.13,1-2.36,3.55-2.36a9,9,0,0,1,3.74.79Z"/><path class="cls-3" d="M25.48,57.8c0,2.55-1.43,4.66-3.75,4.66S18,60.35,18,57.85c0-2.2,1.05-4.65,3.77-4.65s3.72,2.5,3.72,4.6m-3.61-6.62c-4,0-7.15,2.43-7.15,6.74,0,4.12,3,6.55,6.93,6.55,3.41,0,7.1-2,7.1-6.74C28.75,53.82,26,51.18,21.87,51.18Z"/><rect class="cls-3" x="31.91" y="45.65" width="3.19" height="18.57"/><path class="cls-3" d="M51.5,51.46H48.31v7.89a3,3,0,0,1-3.16,2.9c-2.09,0-2.84-1.46-2.84-3.66V51.46H39.12V59c0,4.07,2.29,5.43,4.9,5.43a5.54,5.54,0,0,0,4.57-2.11h.08l.16,1.86h2.81c-.06-1-.14-2.22-.14-3.65Z"/><path class="cls-4" d="M65.37,61.81a8.19,8.19,0,0,1-2.86.51,4.29,4.29,0,0,1-4.6-4.47,4.34,4.34,0,0,1,4.62-4.54,6.89,6.89,0,0,1,2.73.51l.63-2.06a9.36,9.36,0,0,0-3.38-.58c-4.87,0-7.84,2.92-7.84,6.79s2.86,6.5,7.23,6.5a11.41,11.41,0,0,0,3.91-.65Z"/><path class="cls-4" d="M70.84,56.53a3.58,3.58,0,0,1,3.5-3.43c2.45,0,3.19,1.9,3.16,3.43Zm8.39,5.28a10.93,10.93,0,0,1-3.82.6c-2.39,0-4.51-1.09-4.59-4h9.63a7.3,7.3,0,0,0,.08-1.13c0-3.15-1.71-6.14-6-6.14A6.51,6.51,0,0,0,67.73,58c0,3.89,2.65,6.46,7.21,6.46a14,14,0,0,0,4.82-.76Z"/><path class="cls-4" d="M96.13,56.41c0-3.93-2.64-5.23-5-5.23a5.41,5.41,0,0,0-4.59,2.18h-.09l-.16-1.9H83.5c0,1.09.11,2.18.11,3.59v9.17H86.8V56.53a3.13,3.13,0,0,1,3.25-3.13c2.17,0,2.89,1.53,2.89,3.34v7.48h3.19Z"/><path class="cls-4" d="M100.78,51.46H98.63v2h2.15v6.6a4.32,4.32,0,0,0,1.12,3.43,4.41,4.41,0,0,0,3,1,8.11,8.11,0,0,0,2.48-.3l-.11-2.06a5.61,5.61,0,0,1-1.4.16c-1.35,0-1.93-.76-1.93-2.34V53.47h3.6v-2h-3.6V48.31l-3.16.83Z"/><path class="cls-4" d="M112.47,56.53A3.56,3.56,0,0,1,116,53.1c2.45,0,3.19,1.9,3.17,3.43Zm8.39,5.28a11,11,0,0,1-3.82.6c-2.4,0-4.52-1.09-4.6-4h9.63a6.24,6.24,0,0,0,.08-1.13c0-3.15-1.7-6.14-6-6.14A6.5,6.5,0,0,0,109.36,58c0,3.89,2.64,6.46,7.21,6.46a14,14,0,0,0,4.81-.76Z"/><path class="cls-4" d="M132.86,51.25a5.18,5.18,0,0,0-.8-.07,4.32,4.32,0,0,0-3.94,2.62H128l-.11-2.34h-2.78c.09,1.18.11,2.41.11,3.89v8.87h3.2V57.46a3.37,3.37,0,0,1,3.49-3.71,5.3,5.3,0,0,1,.94.07Z"/></g></g></svg>