<svg xmlns="http://www.w3.org/2000/svg" viewBox="0 0 234.5 134.99"><defs><style>.cls-1,.cls-5{fill:#06195e;}.cls-1,.cls-2{fill-rule:evenodd;}.cls-2{fill:#fca436;}.cls-3{fill:#ffa82d;}.cls-4{fill:#031a5d;}</style></defs><title>LOGO_FOOTER</title><g id="Layer_2" data-name="Layer 2"><g id="BODY"><polygon class="cls-1" points="87.77 28.54 99.43 16.57 86.79 0.94 56.09 33.51 86.93 72.59 106.52 52.77 87.77 28.54"/><polygon class="cls-2" points="92.59 29.05 119.13 1.41 131.54 15.23 114.2 32.57 134.12 56.71 110.92 82.72 97.1 67.25 111.63 52.96 92.59 29.05"/><polygon class="cls-1" points="120.52 33.67 151.23 0 182.63 38.43 151.46 71.47 120.52 33.67"/><path class="cls-3" d="M20.54,83a19.89,19.89,0,0,0-7.82-1.43C5.34,81.6.63,85.31.63,90.26c0,4.25,3.74,7.07,9.28,8.95,4.42,1.55,6.31,3.19,6.31,5.84,0,2.82-2.48,4.74-6.9,4.74A18.47,18.47,0,0,1,1.26,108l-1.26,4a20.83,20.83,0,0,0,9,1.88c8.36,0,13-3.93,13-9.16,0-4.29-2.87-7-8.84-9.23-4.71-1.72-6.8-3-6.8-5.68,0-2,1.85-4.17,6.27-4.17A15.77,15.77,0,0,1,19.18,87Z"/><path class="cls-3" d="M45,102c0,4.49-2.53,8.21-6.61,8.21s-6.6-3.72-6.6-8.13c0-3.88,1.84-8.21,6.65-8.21S45,98.31,45,102M38.61,90.34C31.52,90.34,26,94.63,26,102.23c0,7.28,5.29,11.57,12.24,11.57,6,0,12.53-3.48,12.53-11.89C50.75,95,45.94,90.34,38.61,90.34Z"/><rect class="cls-3" x="56.33" y="80.57" width="5.63" height="32.77"/><path class="cls-3" d="M90.91,90.83H85.27v13.94c0,3.39-3,5.1-5.58,5.1-3.69,0-5-2.57-5-6.45V90.83H69.05v13.38c0,7.18,4,9.59,8.65,9.59a9.76,9.76,0,0,0,8.06-3.72h.14l.3,3.27h5c-.1-1.8-.24-3.92-.24-6.44Z"/><path class="cls-4" d="M115.38,109.1a14.14,14.14,0,0,1-5,.9c-4.66,0-8.11-2.94-8.11-7.89,0-4.41,2.92-8,8.16-8a12.1,12.1,0,0,1,4.81.9l1.11-3.64a16.62,16.62,0,0,0-6-1c-8.59,0-13.84,5.15-13.84,12,0,7,5.05,11.49,12.77,11.49a20.15,20.15,0,0,0,6.9-1.15Z"/><path class="cls-4" d="M125.05,99.78c.29-2.61,2-6,6.16-6,4.33,0,5.64,3.35,5.59,6Zm14.81,9.32a19.56,19.56,0,0,1-6.75,1.06c-4.23,0-8-1.92-8.11-7h17a11.57,11.57,0,0,0,.15-2c0-5.56-3-10.83-10.54-10.83s-12,5.35-12,12.06,4.66,11.4,12.72,11.4a24.51,24.51,0,0,0,8.5-1.35Z"/><path class="cls-4" d="M169.67,99.58c0-7-4.66-9.24-8.83-9.24a9.58,9.58,0,0,0-8.11,3.84h-.15l-.29-3.35h-4.91c.1,1.92.2,3.84.2,6.34v16.18h5.63V99.78a5.51,5.51,0,0,1,5.73-5.52c3.84,0,5.1,2.7,5.1,5.89v13.2h5.63Z"/><path class="cls-4" d="M177.88,90.83h-3.79v3.56h3.79V106c0,3,.63,4.83,2,6a7.72,7.72,0,0,0,5.3,1.72,14.87,14.87,0,0,0,4.37-.53l-.2-3.64a9.78,9.78,0,0,1-2.48.29c-2.37,0-3.39-1.35-3.39-4.13V94.39h6.36V90.83h-6.36V85.27l-5.59,1.48Z"/><path class="cls-4" d="M198.52,99.78c.29-2.61,2-6,6.17-6,4.32,0,5.63,3.35,5.58,6Zm14.81,9.32a19.56,19.56,0,0,1-6.75,1.06c-4.22,0-8-1.92-8.11-7h17a12.77,12.77,0,0,0,.14-2c0-5.56-3-10.83-10.53-10.83S193,95.69,193,102.4s4.66,11.4,12.73,11.4a24.44,24.44,0,0,0,8.49-1.35Z"/><path class="cls-4" d="M234.5,90.46a7.85,7.85,0,0,0-1.4-.12A7.61,7.61,0,0,0,226.15,95H226l-.2-4.13h-4.9c.14,2.09.19,4.25.19,6.87v15.65h5.64V101.42c0-3.93,2.37-6.54,6.16-6.54a10,10,0,0,1,1.65.12Z"/><path class="cls-5" d="M225.4,124.48a3.91,3.91,0,0,0-1.83-.44,2.4,2.4,0,0,0-2.66,2.3c0,.89.6,1.65,2,2.2.92.39,1.24.71,1.24,1.29s-.42,1-1.28,1a3.7,3.7,0,0,1-1.76-.52l-.36,1.2a4.19,4.19,0,0,0,2.09.52c1.74,0,2.87-.88,2.87-2.36,0-1.11-.67-1.81-1.94-2.33-.93-.4-1.28-.67-1.28-1.2s.39-.93,1.11-.93a2.88,2.88,0,0,1,1.47.43Zm-10.65,2.78c.09-.9.59-2.07,1.77-2.07s1.62,1.15,1.6,2.07Zm4.25,3.17a4.72,4.72,0,0,1-1.93.37,2.18,2.18,0,0,1-2.33-2.39h4.88a6.39,6.39,0,0,0,0-.68c0-1.9-.87-3.69-3-3.69s-3.45,1.82-3.45,4.11,1.33,3.89,3.65,3.89a6.07,6.07,0,0,0,2.44-.46Zm-7.41-9.73H210v11.18h1.62Zm-8.53,6.64a1.93,1.93,0,0,1,1.77-2c1.28,0,1.91,1.21,1.91,2.66,0,1.65-.69,2.75-1.93,2.75a1.81,1.81,0,0,1-1.75-1.9Zm0-2.06V120.7h-1.62v9.13c0,.7,0,1.54-.06,2h1.38l.09-1.15h0a2.45,2.45,0,0,0,2.27,1.31c1.59,0,3.22-1.31,3.22-4.12,0-2.34-1.21-3.88-3-3.88a2.54,2.54,0,0,0-2.32,1.24Zm-8.09,2c.09-.9.59-2.07,1.77-2.07s1.62,1.15,1.61,2.07Zm4.25,3.17a4.72,4.72,0,0,1-1.93.37,2.18,2.18,0,0,1-2.33-2.39h4.88a4.52,4.52,0,0,0,0-.68c0-1.9-.86-3.69-3-3.69s-3.45,1.82-3.45,4.11,1.34,3.89,3.65,3.89a6,6,0,0,0,2.44-.46Zm-7.42-6.23h-1.62V129a1.65,1.65,0,0,1-1.6,1.74c-1.06,0-1.44-.88-1.44-2.2v-4.3h-1.62v4.57c0,2.44,1.16,3.27,2.48,3.27a2.69,2.69,0,0,0,2.32-1.27h0l.08,1.11h1.42c0-.61-.06-1.33-.06-2.19Zm-8.27,3c0-2.42-1.25-3.2-2.4-3.2a2.65,2.65,0,0,0-2.37,1.4h0a2.07,2.07,0,0,0-2-1.4,2.49,2.49,0,0,0-2.24,1.29h-.05l-.08-1.13h-1.39c0,.66.05,1.3.05,2.16v5.52h1.59v-4.65a1.7,1.7,0,0,1,1.55-1.87c.93,0,1.34.82,1.34,1.9v4.62h1.59v-4.74a1.63,1.63,0,0,1,1.49-1.78c1,0,1.39.85,1.39,2.13v4.39h1.59Zm-17.27,2a1.57,1.57,0,0,1-1.6,1.56,1.09,1.09,0,0,1-1.13-1.22c0-1.37,1.46-1.61,2.73-1.61Zm1.57-2.13c0-1.63-.62-3.12-2.88-3.12a4.77,4.77,0,0,0-2.48.64l.33,1.07a3.56,3.56,0,0,1,1.87-.53c1.55,0,1.55,1.14,1.55,1.72-2.64,0-4.3.94-4.3,2.85a2.18,2.18,0,0,0,2.26,2.25,2.61,2.61,0,0,0,2.15-1h0l.11.89H168a10.1,10.1,0,0,1-.12-1.82Zm-6.63-3.08a1.75,1.75,0,0,0-.4,0,2.22,2.22,0,0,0-2,1.57h-.05l-.06-1.41h-1.41c.05.71.06,1.45.06,2.34v5.34H159v-4.07c0-1.33.68-2.23,1.77-2.23a3.17,3.17,0,0,1,.47,0Zm-7.47,5.21a1.57,1.57,0,0,1-1.6,1.56,1.09,1.09,0,0,1-1.13-1.22c0-1.37,1.46-1.61,2.73-1.61Zm1.57-2.13c0-1.63-.62-3.12-2.88-3.12a4.77,4.77,0,0,0-2.48.64l.33,1.07a3.56,3.56,0,0,1,1.87-.53c1.55,0,1.55,1.14,1.55,1.72-2.64,0-4.3.94-4.3,2.85a2.18,2.18,0,0,0,2.26,2.25,2.61,2.61,0,0,0,2.15-1h0l.11.89h1.47a10.1,10.1,0,0,1-.12-1.82Zm-12.29.21a1.94,1.94,0,0,1,1.78-2c1.25,0,1.9,1.21,1.9,2.68s-.68,2.74-1.94,2.74a1.78,1.78,0,0,1-1.74-2Zm-.17-2-.08-1.17h-1.42c0,.69,0,1.48,0,2.48V135H143v-4h0a2.35,2.35,0,0,0,2.05,1.06c1.61,0,3.24-1.27,3.24-4.09,0-2.38-1.29-3.91-3-3.91a2.73,2.73,0,0,0-2.44,1.33ZM135,128c0,1.54-.73,2.8-1.9,2.8s-1.89-1.26-1.89-2.77c0-1.32.53-2.8,1.91-2.8S135,126.75,135,128Zm-1.83-4c-2,0-3.62,1.46-3.62,4s1.52,3.95,3.51,3.95c1.73,0,3.6-1.19,3.6-4.06C136.67,125.62,135.29,124,133.18,124Zm-6.81,4.69a1.84,1.84,0,0,1-1.73,2c-1.23,0-1.9-1.16-1.9-2.67s.69-2.74,1.93-2.74a1.8,1.8,0,0,1,1.7,2Zm1.61-8h-1.61v4.37h0a2.24,2.24,0,0,0-2-1c-1.72,0-3.21,1.47-3.21,4.08,0,2.37,1.32,3.92,3.07,3.92a2.54,2.54,0,0,0,2.32-1.36h.05l.08,1.2H128c0-.53-.06-1.35-.06-2ZM118.31,128c0,1.54-.72,2.8-1.89,2.8s-1.9-1.26-1.9-2.77c0-1.32.53-2.8,1.91-2.8S118.31,126.75,118.31,128Zm-1.82-4c-2,0-3.63,1.46-3.63,4s1.52,3.95,3.51,3.95c1.73,0,3.6-1.19,3.6-4.06C120,125.62,118.59,124,116.49,124Zm-4-2.83h-7.37v1.38H108v9.29h1.62v-9.29h2.88Z"/></g></g></svg>